<?xml version="1.0" standalone="no"?>
<!DOCTYPE svg PUBLIC "-//W3C//DTD SVG 20010904//EN"
 "http://www.w3.org/TR/2001/REC-SVG-20010904/DTD/svg10.dtd">
<svg version="1.0" xmlns="http://www.w3.org/2000/svg"
 width="512.000000pt" height="512.000000pt" viewBox="0 0 512.000000 512.000000"
 preserveAspectRatio="xMidYMid meet">
<metadata>
Created by potrace 1.14, written by Peter Selinger 2001-2017
</metadata>
<g transform="translate(0.000000,512.000000) scale(0.100000,-0.100000)"
fill="#000000" stroke="none">
<path d="M2378 5055 c-2 -2 -41 -6 -87 -9 -47 -4 -87 -9 -91 -11 -3 -2 -26 -6
-50 -10 -224 -33 -481 -116 -704 -228 -418 -209 -788 -550 -1025 -945 -34 -57
-65 -111 -68 -120 -3 -9 -11 -24 -18 -32 -19 -24 -101 -217 -140 -329 -41
-120 -78 -263 -95 -371 -7 -41 -14 -84 -16 -95 -25 -135 -25 -624 1 -697 2 -7
6 -31 9 -53 21 -187 122 -498 232 -716 48 -96 159 -280 201 -334 13 -16 27
-34 31 -40 78 -105 120 -153 242 -276 345 -347 807 -593 1287 -684 167 -32
256 -39 463 -40 201 0 286 6 425 30 418 72 814 249 1145 513 114 90 301 276
389 387 245 306 425 690 500 1065 37 186 46 280 46 495 0 160 -7 292 -19 350
-2 11 -9 54 -16 95 -51 317 -200 684 -395 967 -33 49 -65 95 -71 103 -171 221
-386 421 -624 581 -125 84 -359 203 -490 249 -19 6 -44 16 -55 20 -62 26 -267
82 -350 95 -22 4 -52 9 -66 11 -110 19 -270 32 -416 32 -95 0 -173 -2 -175 -3z
m-363 -1184 c9 -1 69 -79 170 -222 11 -15 205 -280 430 -588 l410 -559 3 684
2 684 28 1 c15 0 172 1 349 2 l323 2 0 -1312 c0 -1043 -3 -1313 -12 -1314 -7
0 -141 -1 -297 -1 l-285 -1 -20 25 c-12 14 -53 69 -93 124 -126 175 -531 729
-540 739 -5 6 -41 55 -81 110 -39 55 -126 174 -192 264 l-120 164 0 -712 0
-711 -42 -1 c-24 0 -180 -1 -348 -1 l-305 0 -3 1310 c-2 1221 -1 1311 15 1314
13 2 564 1 608 -1z"/>
</g>
</svg>
